<?xml version="1.0" standalone="no"?><!DOCTYPE svg PUBLIC "-//W3C//DTD SVG 1.1//EN" "http://www.w3.org/Graphics/SVG/1.1/DTD/svg11.dtd"><svg t="1775400106970" class="icon" viewBox="0 0 1024 1024" version="1.1" xmlns="http://www.w3.org/2000/svg" p-id="2512" xmlns:xlink="http://www.w3.org/1999/xlink" width="200" height="200"><path d="M0 0m512 0l0 0q512 0 512 512l0 0q0 512-512 512l0 0q-512 0-512-512l0 0q0-512 512-512Z" fill="#EBF6FE" p-id="2513"></path><path d="M392.832 240C306.336 240 256 285.568 256 363.648v264.448c0 79.36 50.336 123.904 136.832 123.904h238.4C719.04 752 768 707.456 768 628.096v-264.448c0-78.08-48.928-123.648-136.8-123.648h-238.4z" fill="#2196F3" p-id="2514"></path><path d="M425.6 526.4l7.04-25.92c7.04-24.64 14.08-51.52 20.16-77.44h1.28c7.04 25.6 13.44 52.8 20.8 77.44l7.04 25.92H425.6z m83.2 97.6h49.6l-76.16-236.8h-55.68l-75.84 236.8h48l16.64-60.8h76.8l16.64 60.8z m77.312 0h47.36v-236.8h-47.36v236.8z" fill="#FFFFFF" p-id="2515"></path></svg>